<svg xmlns="http://www.w3.org/2000/svg" width="128" height="38" viewBox="0 0 196 58" fill="none">
    <path
        d="M28.2044 38.8842C25.6745 40.7572 20.6192 42.5125 18.1323 43.3097C16.4824 43.8334 16.4688 43.8392 16.2856 43.9675C16.302 43.9675 16.3283 43.9786 16.3515 43.9786C16.6112 43.9729 16.9559 43.9615 17.2157 43.9562C17.8212 43.9229 18.4142 43.8614 18.9987 43.7665C19.8636 43.6274 20.7053 43.4268 21.518 43.1649C22.3288 42.8972 23.1093 42.5738 23.8606 42.2007C24.6108 41.8164 25.3296 41.3813 26.0001 40.8967C26.5932 40.4395 27.3544 39.7982 27.9056 39.3026C28.1966 39.0124 28.4729 38.7284 28.7417 38.422L28.2044 38.8842Z"
        fill="url(#paint0_linear_148_2874)"></path>
    <path
        d="M28.2044 38.8842C25.6745 40.7572 20.6192 42.5125 18.1323 43.3097C16.4824 43.8334 16.4688 43.8392 16.2856 43.9675C16.302 43.9675 16.3283 43.9786 16.3515 43.9786C16.6112 43.9729 16.9559 43.9615 17.2157 43.9562C17.8212 43.9229 18.4142 43.8614 18.9987 43.7665C19.8636 43.6274 20.7053 43.4268 21.518 43.1649C22.3288 42.8972 23.1093 42.5738 23.8606 42.2007C24.6108 41.8164 25.3296 41.3813 26.0001 40.8967C26.5932 40.4395 27.3544 39.7982 27.9056 39.3026C28.1966 39.0124 28.4729 38.7284 28.7417 38.422L28.2044 38.8842Z"
        fill="url(#paint1_linear_148_2874)"></path>
    <path
        d="M0 29.2867C0.213921 25.497 4.60438 22.8668 14.3614 18.4129C17.833 16.8249 19.9197 15.5646 21.5405 14.4015C23.5967 12.9259 29.3577 15.9641 29.1488 21.1022C29.0961 22.4016 28.6397 24.0592 15.9587 30.223C7.84509 34.169 4.98371 36.3927 5.02119 38.7389C5.02367 38.89 4.99513 39.0961 4.94971 39.2297C4.8868 39.4136 4.69609 39.2186 4.2536 38.8117C1.85481 36.2647 0.293831 32.9543 0 29.2867Z"
        fill="url(#paint2_linear_148_2874)"></path>
    <path
        d="M0 29.2867C0.213921 25.497 4.60438 22.8668 14.3614 18.4129C17.833 16.8249 19.9197 15.5646 21.5405 14.4015C23.5967 12.9259 29.3577 15.9641 29.1488 21.1022C29.0961 22.4016 28.6397 24.0592 15.9587 30.223C7.84509 34.169 4.98371 36.3927 5.02119 38.7389C5.02367 38.89 4.99513 39.0961 4.94971 39.2297C4.8868 39.4136 4.69609 39.2186 4.2536 38.8117C1.85481 36.2647 0.293831 32.9543 0 29.2867Z"
        fill="url(#paint3_linear_148_2874)"></path>
    <path
        d="M7.68019 14.382C11.7307 12 15.6083 12.0109 16.2853 12C16.9326 12.039 20.0813 12.3606 18.4865 13.6202C17.6424 14.2832 15.9961 14.9971 13.5049 16.0837C6.34232 19.2101 1.19283 21.6736 0.240234 24.9954C1.11019 20.5422 3.78507 16.7349 7.59656 14.4328"
        fill="url(#paint4_linear_148_2874)"></path>
    <path
        d="M7.68019 14.382C11.7307 12 15.6083 12.0109 16.2853 12C16.9326 12.039 20.0813 12.3606 18.4865 13.6202C17.6424 14.2832 15.9961 14.9971 13.5049 16.0837C6.34232 19.2101 1.19283 21.6736 0.240234 24.9954C1.11019 20.5422 3.78507 16.7349 7.59656 14.4328"
        fill="url(#paint5_linear_148_2874)"></path>
    <path
        d="M10.9863 43.0533C5.31768 40.9743 6.83833 38.4998 16.6067 33.9242C23.3311 30.775 27.0254 28.7799 29.8554 25.9656C32.5652 23.6414 32.6935 28.0108 32.5252 29.7274C31.8918 36.1364 29.6038 37.6305 19.2371 41.7496C16.2185 42.9472 15.6591 43.2038 15.3083 43.6107C15.2396 43.6834 15.2568 43.7887 15.3249 43.8113C15.5619 43.9172 15.6483 43.9562 16.2842 43.9786C15.3031 43.9506 13.2571 43.8892 10.9863 43.0533Z"
        fill="url(#paint6_linear_148_2874)"></path>
    <path
        d="M10.9863 43.0533C5.31768 40.9743 6.83833 38.4998 16.6067 33.9242C23.3311 30.775 27.0254 28.7799 29.8554 25.9656C32.5652 23.6414 32.6935 28.0108 32.5252 29.7274C31.8918 36.1364 29.6038 37.6305 19.2371 41.7496C16.2185 42.9472 15.6591 43.2038 15.3083 43.6107C15.2396 43.6834 15.2568 43.7887 15.3249 43.8113C15.5619 43.9172 15.6483 43.9562 16.2842 43.9786C15.3031 43.9506 13.2571 43.8892 10.9863 43.0533Z"
        fill="url(#paint7_linear_148_2874)"></path>
    <path
        d="M44.9627 35V20.8613H56.413V35H53.6848V23.2709H47.6908V35H44.9627ZM57.7783 35.1394V32.7697C58.097 32.7564 58.3824 32.6767 58.6346 32.5307C58.8869 32.3847 59.1059 32.1391 59.2918 31.7939C59.4909 31.4355 59.6436 30.9376 59.7498 30.3004C59.8693 29.6631 59.9489 28.8467 59.9887 27.851L60.1281 24.5652H67.9542V35H65.2858V26.8951H62.478L62.4381 28.1099C62.385 29.4773 62.2523 30.6124 62.0399 31.5151C61.8274 32.4179 61.5287 33.1348 61.1437 33.6658C60.772 34.1835 60.3074 34.5553 59.7498 34.7809C59.1922 35.0066 58.5351 35.1261 57.7783 35.1394ZM69.0639 31.9134C69.0639 31.2363 69.2498 30.6455 69.6215 30.1411C70.0065 29.6233 70.5375 29.225 71.2146 28.9463C71.8917 28.6675 72.6683 28.5281 73.5445 28.5281C73.9826 28.5281 74.4273 28.5613 74.8787 28.6276C75.3301 28.694 75.7217 28.8002 76.0536 28.9463V28.3887C76.0536 27.7249 75.8545 27.2138 75.4562 26.8553C75.0712 26.4969 74.4937 26.3176 73.7237 26.3176C73.1529 26.3176 72.6086 26.4172 72.0908 26.6164C71.573 26.8155 71.0287 27.1076 70.4579 27.4926L69.6016 25.7402C70.2919 25.2888 70.9956 24.9502 71.7124 24.7246C72.4426 24.4989 73.206 24.386 74.0025 24.386C75.4894 24.386 76.6444 24.7577 77.4675 25.5012C78.3039 26.2446 78.722 27.3067 78.722 28.6874V32.013C78.722 32.2917 78.7685 32.4909 78.8614 32.6104C78.9676 32.7298 79.1336 32.8029 79.3593 32.8294V35C79.1203 35.0398 78.9013 35.073 78.7021 35.0996C78.5163 35.1261 78.357 35.1394 78.2242 35.1394C77.6932 35.1394 77.2883 35.0199 77.0095 34.7809C76.744 34.542 76.578 34.2499 76.5116 33.9047L76.4519 33.3671C76.0005 33.9512 75.4363 34.4026 74.7592 34.7212C74.0822 35.0398 73.3918 35.1991 72.6882 35.1991C71.9979 35.1991 71.3739 35.0597 70.8163 34.7809C70.272 34.4889 69.8406 34.0972 69.5219 33.606C69.2166 33.1016 69.0639 32.5373 69.0639 31.9134ZM75.5558 32.4511C75.7018 32.2917 75.8213 32.1324 75.9142 31.9731C76.0072 31.8138 76.0536 31.6678 76.0536 31.535V30.4796C75.735 30.3468 75.3898 30.2473 75.0181 30.1809C74.6464 30.1012 74.2946 30.0614 73.9627 30.0614C73.2723 30.0614 72.7015 30.2141 72.2501 30.5194C71.812 30.8115 71.593 31.2031 71.593 31.6943C71.593 31.9598 71.666 32.2121 71.812 32.4511C71.958 32.69 72.1705 32.8825 72.4492 33.0285C72.728 33.1746 73.0599 33.2476 73.4449 33.2476C73.8432 33.2476 74.2348 33.1746 74.6198 33.0285C75.0048 32.8692 75.3168 32.6767 75.5558 32.4511ZM82.9111 35V26.8951H79.6054V24.5652H88.9051V26.8951H85.5795V35H82.9111ZM89.8026 35V24.5852H92.471V31.4355L97.1507 24.5652H99.5802V35H96.9118V28.309L92.2918 35H89.8026ZM105.604 35V24.5652H114.964V35H112.295V26.8951H108.273V35H105.604ZM121.611 35.1991C120.761 35.1991 119.998 35.0597 119.321 34.7809C118.644 34.4889 118.066 34.0906 117.588 33.5861C117.124 33.0817 116.765 32.5042 116.513 31.8536C116.261 31.2031 116.135 30.5194 116.135 29.8025C116.135 29.0724 116.261 28.382 116.513 27.7315C116.765 27.081 117.124 26.5035 117.588 25.999C118.066 25.4946 118.644 25.1029 119.321 24.8241C119.998 24.5321 120.761 24.386 121.611 24.386C122.461 24.386 123.217 24.5321 123.881 24.8241C124.558 25.1029 125.136 25.4946 125.614 25.999C126.091 26.5035 126.45 27.081 126.689 27.7315C126.941 28.382 127.067 29.0724 127.067 29.8025C127.067 30.5194 126.941 31.2031 126.689 31.8536C126.45 32.5042 126.091 33.0817 125.614 33.5861C125.149 34.0906 124.578 34.4889 123.901 34.7809C123.224 35.0597 122.461 35.1991 121.611 35.1991ZM118.883 29.8025C118.883 30.4132 119.002 30.9575 119.241 31.4355C119.48 31.9001 119.805 32.2652 120.217 32.5307C120.629 32.7962 121.093 32.929 121.611 32.929C122.115 32.929 122.573 32.7962 122.985 32.5307C123.396 32.2519 123.722 31.8802 123.961 31.4155C124.213 30.9376 124.339 30.3933 124.339 29.7826C124.339 29.1852 124.213 28.6475 123.961 28.1696C123.722 27.6917 123.396 27.32 122.985 27.0545C122.573 26.7889 122.115 26.6562 121.611 26.6562C121.093 26.6562 120.629 26.7956 120.217 27.0744C119.805 27.3399 119.48 27.7116 119.241 28.1895C119.002 28.6542 118.883 29.1919 118.883 29.8025ZM132.457 35V24.5652H135.245L138.511 30.5991L141.797 24.5652H144.545V35H142.016V28.2493L139.348 33.148H137.675L134.987 28.2493V35H132.457ZM146.406 35V24.5852H149.075V31.4355L153.754 24.5652H156.184V35H153.516V28.309L148.896 35H146.406ZM164.275 35.1991C163.465 35.1991 162.748 35.0199 162.124 34.6615C161.513 34.2897 161.035 33.7919 160.69 33.1679V39.2416H158.022V24.5652H160.352V26.3575C160.75 25.7468 161.254 25.2689 161.865 24.9237C162.476 24.5652 163.173 24.386 163.956 24.386C164.66 24.386 165.303 24.5254 165.888 24.8042C166.485 25.083 167.003 25.4746 167.441 25.9791C167.879 26.4703 168.217 27.0412 168.456 27.6917C168.709 28.3289 168.835 29.0193 168.835 29.7627C168.835 30.7717 168.636 31.6877 168.237 32.5108C167.852 33.3339 167.315 33.991 166.624 34.4822C165.947 34.9602 165.164 35.1991 164.275 35.1991ZM163.378 32.929C163.79 32.929 164.162 32.8427 164.494 32.6701C164.825 32.4975 165.111 32.2652 165.35 31.9731C165.602 31.6678 165.788 31.3293 165.907 30.9575C166.04 30.5725 166.107 30.1743 166.107 29.7627C166.107 29.3246 166.034 28.9197 165.888 28.548C165.755 28.1763 165.556 27.851 165.29 27.5722C165.025 27.2801 164.713 27.0545 164.354 26.8951C164.009 26.7358 163.631 26.6562 163.219 26.6562C162.967 26.6562 162.708 26.7026 162.442 26.7956C162.19 26.8752 161.945 26.9947 161.706 27.154C161.467 27.3133 161.254 27.4992 161.068 27.7116C160.896 27.924 160.77 28.1563 160.69 28.4086V30.858C160.849 31.243 161.062 31.5948 161.327 31.9134C161.606 32.232 161.925 32.4842 162.283 32.6701C162.642 32.8427 163.007 32.929 163.378 32.929ZM171.248 39.5005C170.97 39.5005 170.684 39.4673 170.392 39.4009C170.113 39.3345 169.788 39.235 169.416 39.1022L169.934 36.9914C170.133 37.0843 170.319 37.1507 170.492 37.1905C170.678 37.2303 170.844 37.2502 170.99 37.2502C171.321 37.2502 171.614 37.1308 171.866 36.8918C172.131 36.6528 172.344 36.2877 172.503 35.7965L172.822 34.9403L168.6 24.5652H171.368L174.176 32.2718L176.645 24.5652H179.194L174.933 36.4935C174.707 37.1308 174.408 37.6684 174.036 38.1065C173.665 38.5579 173.24 38.9031 172.762 39.142C172.284 39.381 171.78 39.5005 171.248 39.5005Z"
        fill="#141C21"></path>
    <defs>
        <linearGradient id="paint0_linear_148_2874" x1="29.6666" y1="38.422" x2="20.8674" y2="48.2312"
                        gradientUnits="userSpaceOnUse">
            <stop stop-color="#22B1F8" stop-opacity="0"></stop>
            <stop offset="0.511863" stop-color="#22B1F8"></stop>
            <stop offset="1" stop-color="#22B1F8" stop-opacity="0"></stop>
        </linearGradient>
        <linearGradient id="paint1_linear_148_2874" x1="35.1961" y1="39.7209" x2="23.7142" y2="50.3934"
                        gradientUnits="userSpaceOnUse">
            <stop stop-color="#0C52EB"></stop>
            <stop offset="1" stop-color="#69CBFD"></stop>
        </linearGradient>
        <linearGradient id="paint2_linear_148_2874" x1="31.3192" y1="14.0284" x2="-3.43181" y2="33.9661"
                        gradientUnits="userSpaceOnUse">
            <stop stop-color="#22B1F8" stop-opacity="0"></stop>
            <stop offset="0.511863" stop-color="#22B1F8"></stop>
            <stop offset="1" stop-color="#22B1F8" stop-opacity="0"></stop>
        </linearGradient>
        <linearGradient id="paint3_linear_148_2874" x1="44.2615" y1="19.9358" x2="3.49693" y2="39.4364"
                        gradientUnits="userSpaceOnUse">
            <stop stop-color="#0C52EB"></stop>
            <stop offset="1" stop-color="#69CBFD"></stop>
        </linearGradient>
        <linearGradient id="paint4_linear_148_2874" x1="20.3201" y1="12" x2="0.729685" y2="26.0131"
                        gradientUnits="userSpaceOnUse">
            <stop stop-color="#22B1F8" stop-opacity="0"></stop>
            <stop offset="0.511863" stop-color="#22B1F8"></stop>
            <stop offset="1" stop-color="#22B1F8" stop-opacity="0"></stop>
        </linearGradient>
        <linearGradient id="paint5_linear_148_2874" x1="28.6179" y1="15.0378" x2="4.92806" y2="29.1668"
                        gradientUnits="userSpaceOnUse">
            <stop stop-color="#0C52EB"></stop>
            <stop offset="1" stop-color="#69CBFD"></stop>
        </linearGradient>
        <linearGradient id="paint6_linear_148_2874" x1="34.4213" y1="25.2995" x2="7.02533" y2="43.4449"
                        gradientUnits="userSpaceOnUse">
            <stop stop-color="#22B1F8" stop-opacity="0"></stop>
            <stop offset="0.511863" stop-color="#22B1F8"></stop>
            <stop offset="1" stop-color="#22B1F8" stop-opacity="0"></stop>
        </linearGradient>
        <linearGradient id="paint7_linear_148_2874" x1="45.4652" y1="29.666" x2="12.7099" y2="47.7552"
                        gradientUnits="userSpaceOnUse">
            <stop stop-color="#0C52EB"></stop>
            <stop offset="1" stop-color="#69CBFD"></stop>
        </linearGradient>
    </defs>
</svg>
