<svg width="33" height="32" viewBox="0 0 33 32" fill="none" xmlns="http://www.w3.org/2000/svg">
<path d="M28.2046 26.8842C25.6747 28.7572 20.6194 30.5125 18.1325 31.3097C16.4826 31.8334 16.469 31.8392 16.2858 31.9675C16.3022 31.9675 16.3285 31.9786 16.3517 31.9786C16.6114 31.9729 16.9561 31.9615 17.2159 31.9562C17.8214 31.9229 18.4144 31.8614 18.9989 31.7665C19.8638 31.6274 20.7055 31.4268 21.5182 31.1649C22.329 30.8972 23.1095 30.5738 23.8608 30.2007C24.611 29.8164 25.3298 29.3813 26.0003 28.8967C26.5934 28.4395 27.3546 27.7982 27.9058 27.3026C28.1968 27.0124 28.4731 26.7284 28.7419 26.422L28.2046 26.8842Z" fill="url(#paint0_linear_1265_2812)" style=""/>
<path d="M28.2046 26.8842C25.6747 28.7572 20.6194 30.5125 18.1325 31.3097C16.4826 31.8334 16.469 31.8392 16.2858 31.9675C16.3022 31.9675 16.3285 31.9786 16.3517 31.9786C16.6114 31.9729 16.9561 31.9615 17.2159 31.9562C17.8214 31.9229 18.4144 31.8614 18.9989 31.7665C19.8638 31.6274 20.7055 31.4268 21.5182 31.1649C22.329 30.8972 23.1095 30.5738 23.8608 30.2007C24.611 29.8164 25.3298 29.3813 26.0003 28.8967C26.5934 28.4395 27.3546 27.7982 27.9058 27.3026C28.1968 27.0124 28.4731 26.7284 28.7419 26.422L28.2046 26.8842Z" fill="url(#paint1_linear_1265_2812)" style=""/>
<path d="M0 17.2867C0.213921 13.497 4.60439 10.8668 14.3614 6.41289C17.833 4.82491 19.9197 3.56456 21.5405 2.40155C23.5967 0.925931 29.3577 3.96407 29.1488 9.10219C29.0961 10.4016 28.6397 12.0592 15.9587 18.223C7.84509 22.169 4.98371 24.3927 5.02119 26.7389C5.02367 26.89 4.99513 27.0961 4.94971 27.2297C4.8868 27.4136 4.69609 27.2186 4.2536 26.8117C1.85481 24.2647 0.293831 20.9543 0 17.2867Z" fill="url(#paint2_linear_1265_2812)" style=""/>
<path d="M0 17.2867C0.213921 13.497 4.60439 10.8668 14.3614 6.41289C17.833 4.82491 19.9197 3.56456 21.5405 2.40155C23.5967 0.925931 29.3577 3.96407 29.1488 9.10219C29.0961 10.4016 28.6397 12.0592 15.9587 18.223C7.84509 22.169 4.98371 24.3927 5.02119 26.7389C5.02367 26.89 4.99513 27.0961 4.94971 27.2297C4.8868 27.4136 4.69609 27.2186 4.2536 26.8117C1.85481 24.2647 0.293831 20.9543 0 17.2867Z" fill="url(#paint3_linear_1265_2812)" style=""/>
<path d="M7.6801 2.38203C11.7306 4.76837e-06 15.6082 0.0109128 16.2852 3.8147e-06C16.9326 0.0390336 20.0812 0.360606 18.4865 1.62023C17.6423 2.28325 15.996 2.99706 13.5049 4.08371C6.34223 7.21009 1.19274 9.67358 0.240148 12.9954C1.1101 8.5422 3.78498 4.73485 7.59647 2.43282" fill="url(#paint4_linear_1265_2812)" style=""/>
<path d="M7.6801 2.38203C11.7306 4.76837e-06 15.6082 0.0109128 16.2852 3.8147e-06C16.9326 0.0390336 20.0812 0.360606 18.4865 1.62023C17.6423 2.28325 15.996 2.99706 13.5049 4.08371C6.34223 7.21009 1.19274 9.67358 0.240148 12.9954C1.1101 8.5422 3.78498 4.73485 7.59647 2.43282" fill="url(#paint5_linear_1265_2812)" style=""/>
<path d="M10.9861 31.0533C5.31748 28.9743 6.83813 26.4998 16.6065 21.9242C23.3309 18.775 27.0252 16.7799 29.8552 13.9656C32.565 11.6414 32.6933 16.0108 32.525 17.7274C31.8916 24.1364 29.6036 25.6305 19.2369 29.7496C16.2183 30.9472 15.6589 31.2038 15.3081 31.6107C15.2394 31.6833 15.2566 31.7887 15.3247 31.8113C15.5617 31.9172 15.6481 31.9562 16.284 31.9786C15.3029 31.9506 13.2569 31.8892 10.9861 31.0533Z" fill="url(#paint6_linear_1265_2812)" style=""/>
<path d="M10.9861 31.0533C5.31748 28.9743 6.83813 26.4998 16.6065 21.9242C23.3309 18.775 27.0252 16.7799 29.8552 13.9656C32.565 11.6414 32.6933 16.0108 32.525 17.7274C31.8916 24.1364 29.6036 25.6305 19.2369 29.7496C16.2183 30.9472 15.6589 31.2038 15.3081 31.6107C15.2394 31.6833 15.2566 31.7887 15.3247 31.8113C15.5617 31.9172 15.6481 31.9562 16.284 31.9786C15.3029 31.9506 13.2569 31.8892 10.9861 31.0533Z" fill="url(#paint7_linear_1265_2812)" style=""/>
<defs>
<linearGradient id="paint0_linear_1265_2812" x1="34.4212" y1="13.2995" x2="7.02514" y2="31.4449" gradientUnits="userSpaceOnUse">
<stop stop-color="#22B1F8" stop-opacity="0" style="stop-color:none;stop-opacity:0;"/>
<stop offset="0.511863" stop-color="#22B1F8" style="stop-color:#22B1F8;stop-color:color(display-p3 0.1350 0.6932 0.9722);stop-opacity:1;"/>
<stop offset="1" stop-color="#22B1F8" stop-opacity="0" style="stop-color:none;stop-opacity:0;"/>
</linearGradient>
<linearGradient id="paint1_linear_1265_2812" x1="45.465" y1="17.666" x2="12.7097" y2="35.7552" gradientUnits="userSpaceOnUse">
<stop stop-color="#0C52EB" style="stop-color:#0C52EB;stop-color:color(display-p3 0.0457 0.3230 0.9213);stop-opacity:1;"/>
<stop offset="1" stop-color="#69CBFD" style="stop-color:#69CBFD;stop-color:color(display-p3 0.4118 0.7961 0.9922);stop-opacity:1;"/>
</linearGradient>
<linearGradient id="paint2_linear_1265_2812" x1="34.4212" y1="13.2995" x2="7.02514" y2="31.4449" gradientUnits="userSpaceOnUse">
<stop stop-color="#22B1F8" stop-opacity="0" style="stop-color:none;stop-opacity:0;"/>
<stop offset="0.511863" stop-color="#22B1F8" style="stop-color:#22B1F8;stop-color:color(display-p3 0.1350 0.6932 0.9722);stop-opacity:1;"/>
<stop offset="1" stop-color="#22B1F8" stop-opacity="0" style="stop-color:none;stop-opacity:0;"/>
</linearGradient>
<linearGradient id="paint3_linear_1265_2812" x1="45.465" y1="17.666" x2="12.7097" y2="35.7552" gradientUnits="userSpaceOnUse">
<stop stop-color="#0C52EB" style="stop-color:#0C52EB;stop-color:color(display-p3 0.0457 0.3230 0.9213);stop-opacity:1;"/>
<stop offset="1" stop-color="#69CBFD" style="stop-color:#69CBFD;stop-color:color(display-p3 0.4118 0.7961 0.9922);stop-opacity:1;"/>
</linearGradient>
<linearGradient id="paint4_linear_1265_2812" x1="34.4212" y1="13.2995" x2="7.02514" y2="31.4449" gradientUnits="userSpaceOnUse">
<stop stop-color="#22B1F8" stop-opacity="0" style="stop-color:none;stop-opacity:0;"/>
<stop offset="0.511863" stop-color="#22B1F8" style="stop-color:#22B1F8;stop-color:color(display-p3 0.1350 0.6932 0.9722);stop-opacity:1;"/>
<stop offset="1" stop-color="#22B1F8" stop-opacity="0" style="stop-color:none;stop-opacity:0;"/>
</linearGradient>
<linearGradient id="paint5_linear_1265_2812" x1="45.465" y1="17.666" x2="12.7097" y2="35.7552" gradientUnits="userSpaceOnUse">
<stop stop-color="#0C52EB" style="stop-color:#0C52EB;stop-color:color(display-p3 0.0457 0.3230 0.9213);stop-opacity:1;"/>
<stop offset="1" stop-color="#69CBFD" style="stop-color:#69CBFD;stop-color:color(display-p3 0.4118 0.7961 0.9922);stop-opacity:1;"/>
</linearGradient>
<linearGradient id="paint6_linear_1265_2812" x1="34.4212" y1="13.2995" x2="7.02514" y2="31.4449" gradientUnits="userSpaceOnUse">
<stop stop-color="#22B1F8" stop-opacity="0" style="stop-color:none;stop-opacity:0;"/>
<stop offset="0.511863" stop-color="#22B1F8" style="stop-color:#22B1F8;stop-color:color(display-p3 0.1350 0.6932 0.9722);stop-opacity:1;"/>
<stop offset="1" stop-color="#22B1F8" stop-opacity="0" style="stop-color:none;stop-opacity:0;"/>
</linearGradient>
<linearGradient id="paint7_linear_1265_2812" x1="45.465" y1="17.666" x2="12.7097" y2="35.7552" gradientUnits="userSpaceOnUse">
<stop stop-color="#0C52EB" style="stop-color:#0C52EB;stop-color:color(display-p3 0.0457 0.3230 0.9213);stop-opacity:1;"/>
<stop offset="1" stop-color="#69CBFD" style="stop-color:#69CBFD;stop-color:color(display-p3 0.4118 0.7961 0.9922);stop-opacity:1;"/>
</linearGradient>
</defs>
</svg>
